<svg xmlns="http://www.w3.org/2000/svg" viewBox="0 0 200 200" width="200" height="200">
    <ellipse cx="100" cy="170" rx="70" ry="15" fill="rgba(0,0,0,0.15)"/>
    <!-- Plate -->
    <ellipse cx="100" cy="165" rx="75" ry="15" fill="#f8fafc" stroke="#e2e8f0" stroke-width="3"/>
    <!-- Bottom Layer -->
    <path d="M40,120 Q100,135 160,120 L160,155 Q100,170 40,155 Z" fill="#ffb703"/>
    <path d="M40,120 Q100,135 160,120 L160,130 Q100,145 40,130 Z" fill="#fb8500"/>
    <!-- Frosting drips bottom layer -->
    <path d="M40,120 Q50,132 60,122 Q70,135 80,122 Q90,135 100,122 Q110,135 120,122 Q130,135 140,122 Q150,132 160,120 Q100,135 40,120 Z" fill="#ffccd5"/>
    <!-- Top Layer -->
    <path d="M55,80 Q100,95 145,80 L145,120 Q100,135 55,120 Z" fill="#ff4d6d"/>
    <!-- Top Cream -->
    <ellipse cx="100" cy="80" rx="45" ry="12" fill="#fff0f3"/>
    <path d="M55,80 Q65,92 75,82 Q85,94 95,82 Q105,94 115,82 Q125,94 135,82 Q145,92 145,80 Q100,90 55,80 Z" fill="#fff0f3"/>
    <!-- Candles -->
    <rect x="85" y="45" width="8" height="30" rx="3" fill="#3a86ef"/>
    <rect x="107" y="45" width="8" height="30" rx="3" fill="#ff006e"/>
    <!-- Candle Flames -->
    <path d="M89,30 Q94,40 89,45 Q84,40 89,30 Z" fill="#ffbe0b"/>
    <circle cx="89" cy="40" r="3" fill="#ff006e"/>
    <path d="M111,30 Q116,40 111,45 Q106,40 111,30 Z" fill="#ffbe0b"/>
    <circle cx="111" cy="40" r="3" fill="#ff006e"/>
    <!-- Strawberries / Cherries on Top -->
    <circle cx="70" cy="78" r="6" fill="#d90429"/>
    <circle cx="100" cy="75" r="7" fill="#d90429"/>
    <circle cx="130" cy="78" r="6" fill="#d90429"/>
  </svg>