<svg xmlns="http://www.w3.org/2000/svg" viewBox="0 0 100 100" width="100" height="100">
    <circle cx="50" cy="50" r="44" fill="#9e2a2b"/>
    <path d="M50,10 C53,12 58,8 62,12 C67,10 72,14 77,17 C80,22 86,23 88,29 C92,33 91,40 93,46 C94,52 92,58 91,63 C88,69 88,75 83,79 C79,83 73,85 68,88 C63,91 56,89 50,90 C44,89 37,91 32,88 C27,85 21,83 17,79 C12,75 12,69 9,63 C8,58 6,52 7,46 C9,40 8,33 12,29 C14,23 20,22 23,17 C28,14 33,10 38,12 C42,8 47,12 50,10 Z" fill="#b7094c"/>
    <circle cx="50" cy="50" r="32" fill="#800f2f" stroke="#a01a35" stroke-width="2"/>
    <path d="M50,34 C43,26 31,34 39,45 L50,56 L61,45 C69,34 57,26 50,34 Z" fill="#ffb703"/>
  </svg>